<svg width="14" height="12" viewBox="0 0 14 12" fill="none" xmlns="http://www.w3.org/2000/svg">
<path fill-rule="evenodd" clip-rule="evenodd" d="M7.10333 0.251763C7.18293 0.171957 7.2775 0.10864 7.38161 0.0654386C7.48572 0.0222369 7.59733 0 7.71005 0C7.82277 0 7.93438 0.0222369 8.03849 0.0654386C8.1426 0.10864 8.23717 0.171957 8.31678 0.251763L13.4585 5.3935C13.5383 5.4731 13.6016 5.56767 13.6448 5.67178C13.688 5.77589 13.7103 5.88751 13.7103 6.00022C13.7103 6.11294 13.688 6.22456 13.6448 6.32867C13.6016 6.43278 13.5383 6.52735 13.4585 6.60695L8.31678 11.7487C8.15586 11.9096 7.93762 12 7.71005 12C7.48248 12 7.26424 11.9096 7.10333 11.7487C6.94241 11.5878 6.85201 11.3695 6.85201 11.142C6.85201 10.9144 6.94241 10.6961 7.10333 10.5352L11.6401 6.00022L7.10333 1.46521C7.02352 1.38561 6.9602 1.29104 6.917 1.18693C6.8738 1.08282 6.85156 0.971207 6.85156 0.858488C6.85156 0.745768 6.8738 0.634156 6.917 0.530044C6.9602 0.425932 7.02352 0.331366 7.10333 0.251763Z" fill="white"/>
<path fill-rule="evenodd" clip-rule="evenodd" d="M0 6.00076C0 5.77348 0.0902864 5.55551 0.250997 5.3948C0.411707 5.23409 0.629677 5.1438 0.856956 5.1438H11.9974C12.2247 5.1438 12.4426 5.23409 12.6033 5.3948C12.7641 5.55551 12.8543 5.77348 12.8543 6.00076C12.8543 6.22803 12.7641 6.446 12.6033 6.60672C12.4426 6.76743 12.2247 6.85771 11.9974 6.85771H0.856956C0.629677 6.85771 0.411707 6.76743 0.250997 6.60672C0.0902864 6.446 0 6.22803 0 6.00076Z" fill="white"/>
</svg>
