<svg width="73" height="80" viewBox="0 0 73 80" fill="none" xmlns="http://www.w3.org/2000/svg">
<path opacity="0.15" d="M30.3559 1.56846C33.9781 -0.522818 38.4408 -0.522819 42.063 1.56845L66.5654 15.7149C70.1876 17.8062 72.4189 21.671 72.4189 25.8536V54.1465C72.4189 58.329 70.1876 62.1938 66.5654 64.2851L42.063 78.4315C38.4408 80.5228 33.9781 80.5228 30.3559 78.4315L5.85356 64.2851C2.23136 62.1938 0 58.329 0 54.1465V25.8536C0 21.671 2.23136 17.8062 5.85355 15.7149L30.3559 1.56846Z" fill="#00BB98"/>
<path d="M45.6667 54V50.6667C45.6667 48.8986 44.9643 47.2029 43.714 45.9526C42.4638 44.7024 40.7681 44 39 44H25.6667C23.8986 44 22.2029 44.7024 20.9526 45.9526C19.7024 47.2029 19 48.8986 19 50.6667V54" stroke="#00BB98" stroke-width="2" stroke-linecap="round" stroke-linejoin="round"/>
<path d="M32.3332 37.3333C36.0151 37.3333 38.9998 34.3486 38.9998 30.6667C38.9998 26.9848 36.0151 24 32.3332 24C28.6513 24 25.6665 26.9848 25.6665 30.6667C25.6665 34.3486 28.6513 37.3333 32.3332 37.3333Z" stroke="#00BB98" stroke-width="2" stroke-linecap="round" stroke-linejoin="round"/>
<path d="M53.667 53.9996V50.6663C53.6659 49.1892 53.1743 47.7543 52.2693 46.5868C51.3643 45.4194 50.0972 44.5856 48.667 44.2163" stroke="#00BB98" stroke-width="2" stroke-linecap="round" stroke-linejoin="round"/>
<path d="M42 24.2163C43.434 24.5835 44.7051 25.4175 45.6127 26.5868C46.5204 27.7562 47.0131 29.1944 47.0131 30.6746C47.0131 32.1549 46.5204 33.5931 45.6127 34.7625C44.7051 35.9318 43.434 36.7658 42 37.133" stroke="#00BB98" stroke-width="2" stroke-linecap="round" stroke-linejoin="round"/>
</svg>
