<svg width="1024" height="1024" viewBox="0 0 1024 1024" fill="none" xmlns="http://www.w3.org/2000/svg">
<rect width="1024" height="1024" rx="200" fill="#3C3F69"/>
<mask id="mask0_1213_2367" style="mask-type:alpha" maskUnits="userSpaceOnUse" x="203" y="66" width="532" height="602">
<path fill-rule="evenodd" clip-rule="evenodd" d="M440.468 485.158C440.468 485.158 448.48 493.356 451.14 494.253C451.14 494.253 452.945 495.053 453.167 493.196C453.388 491.339 453.705 479.939 453.388 478.498C453.388 478.498 470.457 469.404 470.647 468.86C470.868 468.347 472.642 467.419 470.647 465.786C469.19 464.601 450.475 463.672 450.475 463.672C450.475 463.672 443.888 446.957 443.255 445.484C442.622 443.979 440.817 443.467 439.613 445.036C438.41 446.573 433.248 460.534 433.248 460.534C433.248 460.534 417.383 457.268 415.927 457.588C414.47 457.94 413.868 459.221 414.628 460.342C415.42 461.463 426.535 473.567 426.535 473.567L417.637 492.683C417.637 492.683 416.623 497.359 421.373 495.277C426.123 493.228 440.468 485.158 440.468 485.158Z" fill="#FBE7EB"/>
<path fill-rule="evenodd" clip-rule="evenodd" d="M562.797 617.982C562.797 617.982 553.012 612.091 551.555 609.657C551.555 609.657 550.32 608.088 552.062 607.415C553.772 606.775 564.665 603.733 566.122 603.733C566.122 603.733 570.808 584.776 571.252 584.456C571.727 584.136 572.17 582.151 574.197 583.72C575.685 584.904 581.068 603.029 581.068 603.029C581.068 603.029 598.675 605.494 600.258 605.782C601.842 606.039 602.76 607.704 601.557 609.273C600.353 610.842 588.162 619.231 588.162 619.231C588.162 619.231 595.097 634.025 595.128 635.53C595.128 637.035 594.052 637.932 592.785 637.451C591.518 636.939 577.237 628.902 577.237 628.902L561.023 642.191C561.023 642.191 556.748 644.304 557.635 639.149C558.49 633.993 562.797 617.982 562.797 617.982Z" fill="#FBE7EB"/>
<path fill-rule="evenodd" clip-rule="evenodd" d="M677.588 230.974C677.588 230.974 676.702 213.874 659.317 218.133C641.963 222.36 649.817 242.501 658.145 247.432C666.473 252.396 678.697 249.098 677.588 230.974Z" fill="#FBE7EB"/>
<path fill-rule="evenodd" clip-rule="evenodd" d="M436.067 626.468C436.067 626.468 414.312 635.434 427.707 656.6C441.133 677.734 463.68 658.137 466.34 644.816C468.968 631.464 459.12 616.766 436.067 626.468Z" fill="#FBE7EB"/>
<path fill-rule="evenodd" clip-rule="evenodd" d="M362.093 626.052C362.093 626.052 377.008 634.73 383.057 617.406C389.137 600.083 367.793 595.696 359.022 600.147C350.218 604.598 346.228 616.926 362.093 626.052Z" fill="#FBE7EB"/>
<path fill-rule="evenodd" clip-rule="evenodd" d="M244.008 638.765C244.008 638.765 246.225 658.266 248.948 662.268C248.948 662.268 250.5 665.278 252.717 663.037C254.933 660.763 267.188 645.809 268.233 643.472C268.233 643.472 300.597 649.364 301.42 648.883C302.243 648.371 305.6 649.012 304.587 644.753C303.858 641.583 279.76 620.513 279.76 620.513C279.76 620.513 288.215 591.085 288.912 588.427C289.577 585.769 287.677 583.144 284.447 583.944C281.217 584.777 259.81 598.034 259.81 598.034C259.81 598.034 241.918 576.804 239.607 575.747C237.327 574.658 235.173 575.747 235.047 578.084C234.92 580.422 237.295 608.441 237.295 608.441L205.565 624.675C205.565 624.675 199.327 629.895 207.877 632.136C216.395 634.378 244.008 638.765 244.008 638.765Z" fill="#FBE7EB"/>
<path fill-rule="evenodd" clip-rule="evenodd" d="M341.035 556.726C341.193 549.649 331.155 544.462 324.537 545.487C310.223 547.76 315.765 561.305 318.552 564.411C323.46 569.823 335.525 567.197 339.357 561.561C340.465 559.896 340.972 558.263 341.035 556.726Z" fill="#FBE7EB"/>
<path fill-rule="evenodd" clip-rule="evenodd" d="M508.425 570.015C502.282 573.505 502.978 584.872 507.222 590.092C516.405 601.395 525.145 589.676 526.348 585.673C528.47 578.66 520.078 569.502 513.365 569.022C511.37 568.894 509.723 569.278 508.425 570.015Z" fill="#FBE7EB"/>
<path fill-rule="evenodd" clip-rule="evenodd" d="M655.833 615.837C655.96 608.761 645.922 603.573 639.335 604.63C625.022 606.904 630.563 620.481 633.382 623.555C638.29 628.934 650.355 626.308 654.155 620.673C655.263 619.008 655.802 617.375 655.833 615.837Z" fill="#FBE7EB"/>
<path fill-rule="evenodd" clip-rule="evenodd" d="M700.198 76.3108C696.62 70.8992 693.01 64.591 686.328 71.3475C679.647 78.136 665.84 106.635 661.818 107.083C657.797 107.564 647.378 98.2453 638.48 90.9445C629.613 83.6436 620.43 77.1113 620.683 84.5722C620.683 84.5722 615.775 91.3608 633.223 109.869C650.703 128.345 655.168 126.52 650.703 128.345C646.238 130.171 627.967 158.669 632.875 163.633C637.815 168.596 657.005 156.364 666.347 148.647C666.347 148.647 671.73 158.573 681.135 168.052C690.54 177.53 701.718 187.008 705.74 182.013C709.762 177.05 699.85 147.238 701.655 141.826C703.428 136.383 729.332 139.969 733.797 135.422C738.262 130.907 716.792 117.394 702.51 115.601C702.51 115.601 703.777 81.7224 700.198 76.3108Z" fill="#FBE7EB"/>
<path fill-rule="evenodd" clip-rule="evenodd" d="M695.575 586.794C696.05 585.545 723.632 588.075 726.102 585.257C728.572 582.407 708.02 563.29 708.337 560.12C708.748 556.15 727.432 516.891 722.713 514.97C716.95 512.601 690.033 530.212 686.803 531.749C683.573 533.286 665.808 514.33 659.665 511.384C659.665 511.384 649.057 506.837 660.868 546.959C660.868 546.959 632.463 561.113 629.17 565.884C625.908 570.655 663.94 583.336 666.22 584.008C668.532 584.648 671.857 614.332 676.417 617.246C680.977 620.192 689.21 603.573 695.575 586.794Z" fill="#FBE7EB"/>
<path fill-rule="evenodd" clip-rule="evenodd" d="M457.98 449.262C458.36 448.494 458.74 447.725 459.183 446.925C459.627 446.124 460.197 445.292 460.513 444.779C461.242 443.563 462.033 442.442 462.793 441.257C464.377 438.919 465.992 436.646 467.702 434.469C471.058 430.018 474.637 425.791 478.31 421.692C485.72 413.463 493.288 405.425 500.762 397.324L545.855 348.78L591.487 300.78C606.813 284.865 622.14 268.951 637.688 253.26C638.543 252.428 639.937 252.428 640.76 253.292C641.583 254.093 641.615 255.406 640.887 256.27C626.447 273.017 611.785 289.572 597.155 306.095L552.948 355.472L508.33 404.433L486.068 428.929C482.3 432.931 478.437 436.902 474.383 440.649C472.357 442.538 470.267 444.331 468.177 446.156C467.1 447.021 466.087 447.949 464.978 448.782C464.345 449.294 464.028 449.551 463.585 449.807L462.128 450.639L460.482 451.6C459.627 452.112 458.55 451.792 458.043 450.927C457.758 450.415 457.758 449.775 457.98 449.262Z" fill="#FBE7EB"/>
<path fill-rule="evenodd" clip-rule="evenodd" d="M663.94 267.798C668.247 288.484 670.653 309.329 672.648 330.239C674.422 351.149 676.258 372.059 677.81 393.001C679.488 413.911 680.787 434.885 682.212 455.827C682.972 466.298 683.605 476.769 684.112 487.272C684.682 497.743 685.315 508.214 685.727 518.717C685.758 519.933 684.808 520.958 683.637 521.023C682.497 521.054 681.515 520.222 681.388 519.101C679.963 508.694 678.76 498.287 677.525 487.848C676.227 477.409 675.055 467.002 673.978 456.563C671.793 435.685 669.45 414.808 667.518 393.898C665.428 373.02 663.623 352.11 661.787 331.2C660.14 310.29 658.937 289.316 659.602 268.182C659.633 266.965 660.647 266.005 661.85 266.036C662.895 266.069 663.75 266.805 663.94 267.798Z" fill="#FBE7EB"/>
<path fill-rule="evenodd" clip-rule="evenodd" d="M341.383 543.437C346.545 539.242 351.738 535.144 357.058 531.237C362.347 527.266 367.603 523.328 372.987 519.517C378.37 515.739 383.722 511.928 389.232 508.31C394.742 504.724 400.41 501.361 406.585 498.768C407.725 498.287 409.023 498.8 409.498 499.952C409.847 500.785 409.657 501.778 409.055 502.386C404.337 507.253 399.112 511.352 393.76 515.226C388.345 519.069 382.835 522.719 377.325 526.37C371.815 530.052 366.21 533.575 360.637 537.065C355.063 540.619 349.363 543.95 343.632 547.216C342.587 547.824 341.257 547.44 340.687 546.383C340.148 545.423 340.401 544.27 341.193 543.597L341.383 543.437Z" fill="#FBE7EB"/>
<path fill-rule="evenodd" clip-rule="evenodd" d="M476.22 630.535C482.142 628.806 488.127 627.589 494.143 626.308C500.16 625.187 506.177 624.131 512.225 623.298C518.305 622.466 524.322 621.473 530.433 620.865C536.513 620.128 542.593 619.52 548.705 619.135C550.922 618.975 552.822 620.672 552.948 622.914C553.075 624.899 551.745 626.628 549.908 627.077C543.923 628.518 537.938 629.734 531.89 630.855C525.905 632.072 519.857 632.905 513.808 633.929C507.792 634.922 501.712 635.722 495.632 636.395C489.552 636.971 483.44 637.58 477.265 637.708C475.27 637.74 473.623 636.139 473.591 634.121C473.56 632.424 474.668 630.983 476.22 630.535Z" fill="#FBE7EB"/>
<path fill-rule="evenodd" clip-rule="evenodd" d="M394.837 624.739C398.89 624.195 402.405 624.899 405.793 625.956C407.44 626.532 409.15 627.077 410.607 628.166C412.063 629.286 413.457 630.567 414.438 632.809C415.135 634.346 414.438 636.139 412.918 636.843L412.792 636.875C410.543 637.804 408.643 637.708 406.838 637.516C405.033 637.228 403.45 636.427 401.867 635.659C398.7 634.057 395.723 632.072 393.222 628.806C392.367 627.717 392.557 626.116 393.633 625.252C394.013 624.963 394.425 624.803 394.837 624.739Z" fill="#FBE7EB"/>
<path fill-rule="evenodd" clip-rule="evenodd" d="M292.458 614.3C296.258 613.34 300.09 613.02 303.89 612.795C307.722 612.635 311.553 612.667 315.385 612.891C319.185 613.052 323.017 613.372 326.817 613.82C330.648 614.3 334.448 614.845 338.217 615.773C339.42 616.062 340.148 617.278 339.863 618.495C339.642 619.392 338.913 620.032 338.09 620.16C334.258 620.865 330.427 621.153 326.627 621.377C322.827 621.569 319.027 621.665 315.227 621.601C311.427 621.569 307.627 621.345 303.827 620.961C300.058 620.481 296.258 619.904 292.458 618.719L292.3 618.655C291.128 618.303 290.463 617.022 290.843 615.837C291.097 615.037 291.698 614.493 292.458 614.3Z" fill="#FBE7EB"/>
<path fill-rule="evenodd" clip-rule="evenodd" d="M660.425 203.179H660.14C657.195 203.019 654.947 200.489 655.105 197.511L656.53 169.621C656.688 166.643 659.19 164.369 662.135 164.529C665.08 164.69 667.328 167.219 667.17 170.197L665.713 198.088C665.587 200.938 663.212 203.179 660.425 203.179Z" fill="#FBE7EB"/>
</mask>
<g mask="url(#mask0_1213_2367)">
<g filter="url(#filter0_f_1213_2367)">
<ellipse cx="279" cy="313.5" rx="311" ry="303.5" fill="#FB558B"/>
</g>
<g filter="url(#filter1_f_1213_2367)">
<ellipse cx="811" cy="313.5" rx="311" ry="303.5" fill="#FB558B"/>
</g>
<g filter="url(#filter2_f_1213_2367)">
<ellipse cx="587.5" cy="358.5" rx="229.5" ry="223.5" fill="#FF9A8D" fill-opacity="0.95"/>
</g>
<g opacity="0.5" filter="url(#filter3_f_1213_2367)">
<ellipse cx="442" cy="730.5" rx="310" ry="303.5" fill="#63D5F9"/>
</g>
</g>
<mask id="mask1_1213_2367" style="mask-type:alpha" maskUnits="userSpaceOnUse" x="162" y="756" width="696" height="148">
<path d="M240.108 801.346H269.979V901.038H240.108V891.692C233.038 899.805 223.146 903.862 210.432 903.862C197.33 903.862 186.108 898.767 176.767 888.577C167.427 878.387 162.756 865.926 162.756 851.192C162.756 836.459 167.427 823.997 176.767 813.808C186.108 803.618 197.33 798.523 210.432 798.523C223.146 798.523 233.038 802.579 240.108 810.692V801.346ZM199.34 868.911C203.751 873.325 209.427 875.531 216.367 875.531C223.308 875.531 228.984 873.325 233.395 868.911C237.87 864.497 240.108 858.591 240.108 851.192C240.108 843.793 237.87 837.887 233.395 833.474C228.984 829.06 223.308 826.853 216.367 826.853C209.427 826.853 203.751 829.06 199.34 833.474C194.929 837.887 192.724 843.793 192.724 851.192C192.724 858.591 194.929 864.497 199.34 868.911ZM348.354 798.523C358.927 798.523 367.782 802.19 374.917 809.524C382.052 816.793 385.619 826.886 385.619 839.802V901.038H355.652V844.183C355.652 838.277 354.03 833.798 350.787 830.748C347.544 827.632 343.392 826.074 338.332 826.074C332.624 826.074 328.116 827.794 324.808 831.234C321.5 834.674 319.846 839.802 319.846 846.616V901.038H289.975V801.346H319.846V810.692C322.57 806.928 326.397 803.975 331.327 801.833C336.257 799.626 341.933 798.523 348.354 798.523ZM462.536 830.066H442.005V865.309C442.005 868.1 442.784 870.177 444.341 871.539C445.962 872.903 448.298 873.714 451.346 873.974C454.395 874.168 458.125 874.136 462.536 873.876V901.038C456.049 901.558 450.276 901.785 445.216 901.72C440.222 901.655 435.843 901.006 432.081 899.773C428.384 898.54 425.238 897.014 422.643 895.197C420.114 893.315 418.07 890.881 416.513 887.895C414.957 884.91 413.822 881.6 413.108 877.965C412.46 874.331 412.135 870.112 412.135 865.309V830.066H396.178V801.346H412.135V782.362L442.005 773.405V801.346H462.536V830.066ZM535.852 798.523C546.425 798.523 555.28 802.19 562.413 809.524C569.549 816.793 573.117 826.886 573.117 839.802V901.038H543.15V844.183C543.15 838.277 541.528 833.798 538.283 830.748C535.042 827.632 530.889 826.074 525.829 826.074C520.122 826.074 515.614 827.794 512.307 831.234C508.997 834.674 507.344 839.802 507.344 846.616V901.038H477.473V761.43H507.344V810.692C510.068 806.928 513.895 803.975 518.824 801.833C523.755 799.626 529.431 798.523 535.852 798.523ZM618.314 863.167C621.751 872.448 629.731 877.089 642.25 877.089C646.205 877.089 649.838 876.408 653.148 875.044C656.52 873.617 659.244 871.767 661.321 869.495L685.255 883.32C675.394 897.014 660.932 903.862 641.861 903.862C633.492 903.862 625.839 902.531 618.899 899.87C611.956 897.144 606.118 893.412 601.385 888.674C596.715 883.936 593.081 878.355 590.488 871.929C587.891 865.504 586.596 858.591 586.596 851.192C586.596 841.327 588.8 832.403 593.212 824.419C597.621 816.436 603.882 810.141 611.99 805.533C620.098 800.859 629.307 798.523 639.623 798.523C654.15 798.523 666.215 803.553 675.817 813.613C685.417 823.608 690.218 836.135 690.218 851.192C690.218 855.346 689.828 859.338 689.05 863.167H618.314ZM617.731 840.873H660.542C659.048 835.421 656.389 831.429 652.562 828.898C648.736 826.366 644.358 825.101 639.426 825.101C633.785 825.101 629.114 826.464 625.416 829.19C621.72 831.916 619.157 835.81 617.731 840.873ZM732.786 787.327C729.218 790.832 725.002 792.584 720.139 792.584C715.272 792.584 711.057 790.832 707.488 787.327C703.986 783.757 702.236 779.538 702.236 774.671C702.236 769.803 703.986 765.584 707.488 762.014C711.057 758.445 715.272 756.66 720.139 756.66C725.002 756.66 729.218 758.445 732.786 762.014C736.354 765.584 738.138 769.803 738.138 774.671C738.138 779.538 736.354 783.757 732.786 787.327ZM705.253 901.038V801.346H735.121V901.038H705.253ZM827.313 801.346H857.184V901.038H827.313V891.692C820.242 899.805 810.35 903.862 797.638 903.862C784.536 903.862 773.315 898.767 763.974 888.577C754.634 878.387 749.963 865.926 749.963 851.192C749.963 836.459 754.634 823.997 763.974 813.808C773.315 803.618 784.536 798.523 797.638 798.523C810.35 798.523 820.242 802.579 827.313 810.692V801.346ZM786.547 868.911C790.956 873.325 796.632 875.531 803.572 875.531C810.512 875.531 816.188 873.325 820.6 868.911C825.077 864.497 827.313 858.591 827.313 851.192C827.313 843.793 825.077 837.887 820.6 833.474C816.188 829.06 810.512 826.853 803.572 826.853C796.632 826.853 790.956 829.06 786.547 833.474C782.135 837.887 779.931 843.793 779.931 851.192C779.931 858.591 782.135 864.497 786.547 868.911Z" fill="white"/>
</mask>
<g mask="url(#mask1_1213_2367)">
<g filter="url(#filter4_f_1213_2367)">
<path d="M302.407 988.411C464.085 988.411 595.151 857.268 595.151 695.494C595.151 533.721 464.085 402.577 302.407 402.577C140.729 402.577 9.66376 533.721 9.66376 695.494C9.66376 857.268 140.729 988.411 302.407 988.411Z" fill="#FB558B"/>
</g>
<g filter="url(#filter5_f_1213_2367)">
<path d="M803.544 988.411C965.222 988.411 1096.29 857.268 1096.29 695.494C1096.29 533.721 965.222 402.577 803.544 402.577C641.866 402.577 510.801 533.721 510.801 695.494C510.801 857.268 641.866 988.411 803.544 988.411Z" fill="#FB558B"/>
</g>
<g filter="url(#filter6_f_1213_2367)">
<path d="M592.67 953.659C711.874 953.659 808.507 856.969 808.507 737.695C808.507 618.421 711.874 521.73 592.67 521.73C473.467 521.73 376.834 618.421 376.834 737.695C376.834 856.969 473.467 953.659 592.67 953.659Z" fill="#FF9A8D" fill-opacity="0.95"/>
</g>
<g opacity="0.5" filter="url(#filter7_f_1213_2367)">
<path opacity="0.5" d="M456.222 1390.55C617.9 1390.55 748.965 1259.41 748.965 1097.64C748.965 935.861 617.9 804.718 456.222 804.718C294.544 804.718 163.478 935.861 163.478 1097.64C163.478 1259.41 294.544 1390.55 456.222 1390.55Z" fill="#63D5F9"/>
</g>
</g>
<defs>
<filter id="filter0_f_1213_2367" x="-62" y="-20" width="682" height="667" filterUnits="userSpaceOnUse" color-interpolation-filters="sRGB">
<feFlood flood-opacity="0" result="BackgroundImageFix"/>
<feBlend mode="normal" in="SourceGraphic" in2="BackgroundImageFix" result="shape"/>
<feGaussianBlur stdDeviation="15" result="effect1_foregroundBlur_1213_2367"/>
</filter>
<filter id="filter1_f_1213_2367" x="470" y="-20" width="682" height="667" filterUnits="userSpaceOnUse" color-interpolation-filters="sRGB">
<feFlood flood-opacity="0" result="BackgroundImageFix"/>
<feBlend mode="normal" in="SourceGraphic" in2="BackgroundImageFix" result="shape"/>
<feGaussianBlur stdDeviation="15" result="effect1_foregroundBlur_1213_2367"/>
</filter>
<filter id="filter2_f_1213_2367" x="328" y="105" width="519" height="507" filterUnits="userSpaceOnUse" color-interpolation-filters="sRGB">
<feFlood flood-opacity="0" result="BackgroundImageFix"/>
<feBlend mode="normal" in="SourceGraphic" in2="BackgroundImageFix" result="shape"/>
<feGaussianBlur stdDeviation="15" result="effect1_foregroundBlur_1213_2367"/>
</filter>
<filter id="filter3_f_1213_2367" x="102" y="397" width="680" height="667" filterUnits="userSpaceOnUse" color-interpolation-filters="sRGB">
<feFlood flood-opacity="0" result="BackgroundImageFix"/>
<feBlend mode="normal" in="SourceGraphic" in2="BackgroundImageFix" result="shape"/>
<feGaussianBlur stdDeviation="15" result="effect1_foregroundBlur_1213_2367"/>
</filter>
<filter id="filter4_f_1213_2367" x="-20.3362" y="372.577" width="645.487" height="645.834" filterUnits="userSpaceOnUse" color-interpolation-filters="sRGB">
<feFlood flood-opacity="0" result="BackgroundImageFix"/>
<feBlend mode="normal" in="SourceGraphic" in2="BackgroundImageFix" result="shape"/>
<feGaussianBlur stdDeviation="15" result="effect1_foregroundBlur_1213_2367"/>
</filter>
<filter id="filter5_f_1213_2367" x="480.801" y="372.577" width="645.487" height="645.834" filterUnits="userSpaceOnUse" color-interpolation-filters="sRGB">
<feFlood flood-opacity="0" result="BackgroundImageFix"/>
<feBlend mode="normal" in="SourceGraphic" in2="BackgroundImageFix" result="shape"/>
<feGaussianBlur stdDeviation="15" result="effect1_foregroundBlur_1213_2367"/>
</filter>
<filter id="filter6_f_1213_2367" x="346.834" y="491.73" width="491.673" height="491.929" filterUnits="userSpaceOnUse" color-interpolation-filters="sRGB">
<feFlood flood-opacity="0" result="BackgroundImageFix"/>
<feBlend mode="normal" in="SourceGraphic" in2="BackgroundImageFix" result="shape"/>
<feGaussianBlur stdDeviation="15" result="effect1_foregroundBlur_1213_2367"/>
</filter>
<filter id="filter7_f_1213_2367" x="133.478" y="774.718" width="645.487" height="645.834" filterUnits="userSpaceOnUse" color-interpolation-filters="sRGB">
<feFlood flood-opacity="0" result="BackgroundImageFix"/>
<feBlend mode="normal" in="SourceGraphic" in2="BackgroundImageFix" result="shape"/>
<feGaussianBlur stdDeviation="15" result="effect1_foregroundBlur_1213_2367"/>
</filter>
</defs>
</svg>
